Nederlands gesproken,
With: 'Marmaduke' (Owen Wilson) is de Deense Dog van de Winslow familie. Wanneer de familie gaat verhuizen naar een andere buurt, nemen ze de grote loebas uiteraard mee. Eenmaal aangekomen zorgt de hond voor veel problemen. Marmaduke weet dat de tieners in het mensenleven het best moeilijk kunnen hebben. Hij laat met zijn verwoestende acties echter zien dat dit bij honden precies zo is.

Dutch spoken,
A suburban family moves to a new neighborhood with their large yet lovable Great Dane, who has a tendency to wreak havoc in his own oblivious way. 

------------------------ Dutch Friends ------------------------
---------------------------------------------------------------
- Bezoek ook eens mijn vrienden op:  http://www.Film-Test.nl --
----- voor mijn Nederlandse Sync. ondertitels ---- en meer ----
------- http://www.Film-Test.nl ---- voor Films en meer -------
---------------------------------------------------------------

General:

Complete name                    : Marmaduke\Marmaduke.avi
Format                           : AVI
Format/Info                      : Audio Video Interleave
File size                        : 1.57 GiB
Duration                         : 1h 24mn
Overall bit rate                 : 2 652 Kbps

Video:

Format                           : MPEG-4 Visual
Format profile                   : Simple@L3
Format settings, BVOP            : No
Format settings, QPel            : No
Format settings, GMC             : No warppoints
Format settings, Matrix          : Default (H.263)
Codec ID                         : XVID
Codec ID/Hint                    : XviD
Duration                         : 1h 24mn
Bit rate                         : 2 257 Kbps
Width                            : 720 pixels
Height                           : 304 pixels
Display aspect ratio             : 2.35:1
Frame rate                       : 25.000 fps
Color space                      : YUV
Chroma subsampling               : 4:2:0
Bit depth                        : 8 bits
Scan type                        : Progressive
Compression mode                 : Lossy
Bits/(Pixel*Frame)               : 0.412
Stream size                      : 1.33 GiB (85%)
Writing library                  : XviD 1.1.2 (UTC 2006-11-01)

Audio:

Format                           : AC-3
Format/Info                      : Audio Coding 3
Mode extension                   : CM (complete main)
Codec ID                         : 2000
Duration                         : 1h 24mn
Bit rate mode                    : Constant
Bit rate                         : 384 Kbps
Channel(s)                       : 6 channels
Channel positions                : Front: L C R, Side: L R, LFE
Sampling rate                    : 48.0 KHz
Bit depth                        : 16 bits
Compression mode                 : Lossy
Stream size                      : 232 MiB (14%)
Alignment                        : Aligned on interleaves
Interleave, duration             : 32 ms (0.80 video frame)
Interleave, preload duration     : 544 ms

